<?xml version="1.0" encoding="UTF-8"?>
<svg id="Layer_1" xmlns="http://www.w3.org/2000/svg" version="1.1" viewBox="0 0 24 24">
  <!-- Generator: Adobe Illustrator 29.8.3, SVG Export Plug-In . SVG Version: 2.1.1 Build 3)  -->
  <defs>
    <style>
      .st0 {
        fill: #32bfa4;
      }
    </style>
  </defs>
  <path class="st0" d="M18.82,12.02s0-.05,0-.08c0,0,0,0,0,0,.02-.6-.23-1.18-.7-1.56l-1.64-1.34-7.14-5.67-.09-.06c-.58-.29-1.27-.27-1.83.07-.57.35-.92.95-.93,1.62v14.07c.04.67.44,1.29,1.04,1.61.58.31,1.26.29,1.87-.08l7.07-5.63,1.65-1.29c.48-.38.72-.96.7-1.56,0,0,0,0,0,0,0-.03,0-.05,0-.08Z"/>
</svg>