<?xml version="1.0" encoding="UTF-8"?>
<svg id="Layer_1" xmlns="http://www.w3.org/2000/svg" version="1.1" viewBox="0 0 24 24">
  <!-- Generator: Adobe Illustrator 29.8.3, SVG Export Plug-In . SVG Version: 2.1.1 Build 3)  -->
  <defs>
    <style>
      .st0 {
        fill: red;
        stroke: red;
        stroke-miterlimit: 10;
      }
    </style>
  </defs>
  <path class="st0" d="M14.14,4.58v5.36l-.09.05L6.2,3.75c-.93-.47-2.01.23-2.04,1.25v14.05c.06,1.02,1.18,1.71,2.1,1.17l7.79-6.21.09.05v5.36c0,.39.61.95.98,1.05.54.16,2.56.13,3.2.08.95-.07,1.44-.6,1.5-1.55-.05-4.84.09-9.7-.07-14.53-.15-.43-.45-.76-.89-.91-.54-.18-2.63-.15-3.27-.1s-1.35.46-1.45,1.13Z"/>
  <path class="st0" d="M14.14,4.58c.1-.67.83-1.09,1.45-1.13s2.73-.08,3.27.1c.44.15.73.49.89.91.16,4.83.02,9.69.07,14.53-.06.94-.55,1.48-1.5,1.55-.64.05-2.66.08-3.2-.08-.36-.11-.98-.66-.98-1.05v-5.36l-.09-.05-7.79,6.21c-.91.54-2.04-.15-2.1-1.17V5c.02-1.02,1.1-1.72,2.04-1.25l7.85,6.24.09-.05v-5.36Z"/>
</svg>