<?xml version="1.0" encoding="UTF-8"?>
<svg id="Layer_1" xmlns="http://www.w3.org/2000/svg" version="1.1" viewBox="0 0 24 24">
  <!-- Generator: Adobe Illustrator 29.8.3, SVG Export Plug-In . SVG Version: 2.1.1 Build 3)  -->
  <defs>
    <style>
      .st0 {
        fill: #fff;
      }

      .st1 {
        fill: #307dc1;
      }
    </style>
  </defs>
  <path class="st1" d="M22.18,9.87c-1.04-4.91-5.54-8.44-10.67-8.31l-1.51.18c-3.89.7-6.94,3.39-8.16,7.22-1.22,3.82-.29,7.8,2.48,10.64,2.08,2.12,4.74,3.22,7.47,3.22,1.7,0,3.42-.42,5.04-1.29,4.26-2.28,6.36-6.85,5.34-11.65Z"/>
  <path class="st0" d="M11.37,4.47c.58-.13,1.14.16,1.23.76l.03,7.06,4.59,4.65c.34,1.12-.79,1.74-1.68,1.08l-4.87-4.97c-.09-.19-.1-.39-.12-.6-.03,0-.03-6.97,0-6.97.04-.44.36-.89.82-.99h0v-.02Z"/>
</svg>