<?xml version="1.0" encoding="UTF-8"?>
<svg id="Layer_1" xmlns="http://www.w3.org/2000/svg" version="1.1" viewBox="0 0 24 24">
  <!-- Generator: Adobe Illustrator 29.8.3, SVG Export Plug-In . SVG Version: 2.1.1 Build 3)  -->
  <defs>
    <style>
      .st0 {
        fill: red;
        stroke: red;
        stroke-miterlimit: 10;
      }

      .st1 {
        fill: #fff;
      }
    </style>
  </defs>
  <path class="st0" d="M11.52,2.06c4.79-.09,9.17,3.19,10.17,7.91,2.12,10.03-9.96,16.45-17.01,9.27C-.96,13.48,2.22,3.64,10.09,2.23l1.43-.17Z"/>
  <path class="st1" d="M11.37,4.47c.58-.13,1.14.16,1.23.76l.03,7.06,4.59,4.65c.34,1.12-.79,1.74-1.68,1.08l-4.87-4.97c-.09-.19-.1-.39-.12-.6-.15-1.59-.18-5.41,0-6.97.04-.44.36-.89.82-.99h0Z"/>
</svg>