<?xml version="1.0" encoding="UTF-8"?>
<svg id="Layer_1" xmlns="http://www.w3.org/2000/svg" version="1.1" viewBox="0 0 24 24">
  <!-- Generator: Adobe Illustrator 29.8.3, SVG Export Plug-In . SVG Version: 2.1.1 Build 3)  -->
  <defs>
    <style>
      .st0 {
        fill: red;
      }
    </style>
  </defs>
  <path class="st0" d="M11.52,2.06c4.79-.09,9.17,3.19,10.17,7.91,2.12,10.03-9.96,16.45-17.01,9.27C-.96,13.48,2.22,3.64,10.09,2.23l1.43-.17ZM11.18,3.49c-6.29.51-9.92,7.25-6.94,12.83,3.13,5.86,11.66,6.18,15.1.44,3.65-6.1-1.06-13.83-8.15-13.26Z"/>
  <path class="st0" d="M11.75,6.53c.4-.09.78.11.84.52l.02,4.84,3.15,3.19c.23.77-.54,1.19-1.15.74l-3.34-3.41c-.06-.13-.07-.27-.08-.41-.1-1.09-.12-3.71,0-4.78.03-.3.25-.61.56-.68Z"/>
</svg>