<?xml version="1.0" encoding="UTF-8"?>
<svg id="Layer_1" xmlns="http://www.w3.org/2000/svg" version="1.1" viewBox="0 0 24 24">
  <!-- Generator: Adobe Illustrator 29.8.3, SVG Export Plug-In . SVG Version: 2.1.1 Build 3)  -->
  <defs>
    <style>
      .st0 {
        fill: #fff;
      }

      .st1 {
        fill: red;
      }

      .st2 {
        fill: none;
        stroke: red;
        stroke-miterlimit: 10;
        stroke-width: .5px;
      }
    </style>
  </defs>
  <path class="st0" d="M14.39,6.21c.28.26.77,1.64.99,2.1.68,1.39,1.92,4.17,2.84,5.27,1.41,1.69,5.39,1.59,4.58,4.53s-6.38,1.92-8.54,1.21c-2.31-.76-4.09-2.38-6.21-3.52-1.76-.95-3.96-1.72-5.61-2.72-1.31-.8-1.86-2.1-.8-3.4.29-.35.73-.66,1.02-1.02,1.02-1.29,1.79-3.29,3.05-4.42.61-.56,1.49-.43,1.98.21.45.58.24,1.27.65,1.83.48.65,2.13,1.06,2.9.92.53-.1,1-.73,1.46-1.01.54-.32,1.18-.44,1.68.03h.01ZM21.92,17.9c.47-1.71-1.93-1.99-3.05-2.6-1.49-.82-1.96-2.08-2.75-3.49l-2.62.82c-.54.09-.76-.53-.35-.84.31-.18,2.37-.71,2.47-.87s-.3-.81-.56-.61l-3.22,1.24c-.51.09-.81-.5-.41-.84l3.45-1.38c-.24-.27-1.08-2.51-1.21-2.55-.29-.09-1.23.84-1.5,1.01-1.33.84-4.24.07-4.84-1.48-.14-.37-.17-1.05-.31-1.3-.07-.12-.35-.24-.48-.22-.18.03-.92,1.03-1.07,1.24-.6.81-1.14,1.67-1.64,2.55.66.79,1.59,1.43,2.44,2.01,1.6,1.09,3.17,1.96,4.67,3.22,2.34,1.96,3.25,2.88,6.38,3.62,1.46.35,3.11.63,4.6.46h0ZM10.77,14.99c-.42-.36-.81-.78-1.26-1.13-1.62-1.24-3.5-2.2-5.12-3.47-.16-.12-.97-.89-1.03-.9-.07-.02-.11-.01-.18.02-.13.06-.7.61-.81.75-.38.47-.53.87-.17,1.41.46.69,2.77,1.56,3.61,1.97,1.55.76,3.17,1.54,4.61,2.48,1.89,1.23,2.86,2.06,5.17,2.62,1.7.41,3.61.7,5.31.2l-.67-.11c-4.08-.33-6.37-1.22-9.46-3.83h0Z"/>
  <path class="st1" d="M21.92,17.9c.47-1.71-1.93-1.99-3.05-2.6-1.49-.82-1.96-2.08-2.75-3.49l-2.62.82c-.54.09-.76-.53-.35-.84.31-.18,2.37-.71,2.47-.87s-.3-.81-.56-.61l-3.22,1.24c-.51.09-.81-.5-.41-.84l3.45-1.38c-.24-.27-1.08-2.51-1.21-2.55-.29-.09-1.23.84-1.5,1.01-1.33.84-4.24.07-4.84-1.48-.14-.37-.17-1.05-.31-1.3-.07-.12-.35-.24-.48-.22-.18.03-.92,1.03-1.07,1.24-.6.81-1.14,1.67-1.64,2.55.66.79,1.59,1.43,2.44,2.01,1.6,1.09,3.17,1.96,4.67,3.22,2.34,1.96,3.25,2.88,6.38,3.62,1.46.35,3.11.63,4.6.46h0Z"/>
  <path class="st1" d="M10.77,14.99c-.42-.36-.81-.78-1.26-1.13-1.62-1.24-3.5-2.2-5.12-3.47-.16-.12-.97-.89-1.03-.9-.07-.02-.11-.01-.18.02-.13.06-.7.61-.81.75-.38.47-.53.87-.17,1.41.46.69,2.77,1.56,3.61,1.97,1.55.76,3.17,1.54,4.61,2.48,1.89,1.23,2.86,2.06,5.17,2.62,1.7.41,3.61.7,5.31.2l-.67-.11c-4.08-.33-6.37-1.22-9.46-3.83h0Z"/>
  <path class="st2" d="M14.39,6.21c.28.26.77,1.64.99,2.1.68,1.39,1.92,4.17,2.84,5.27,1.41,1.69,5.39,1.59,4.58,4.53s-6.38,1.92-8.54,1.21c-2.31-.76-4.09-2.38-6.21-3.52-1.76-.95-3.96-1.72-5.61-2.72-1.31-.8-1.86-2.1-.8-3.4.29-.35.73-.66,1.02-1.02,1.02-1.29,1.79-3.29,3.05-4.42.61-.56,1.49-.43,1.98.21.45.58.24,1.27.65,1.83.48.65,2.13,1.06,2.9.92.53-.1,1-.73,1.46-1.01.54-.32,1.18-.44,1.68.03h.01Z"/>
</svg>