<?xml version="1.0" encoding="UTF-8"?>
<svg id="Layer_1" xmlns="http://www.w3.org/2000/svg" version="1.1" viewBox="0 0 128 128">
  <!-- Generator: Adobe Illustrator 29.8.3, SVG Export Plug-In . SVG Version: 2.1.1 Build 3)  -->
  <defs>
    <style>
      .st0 {
        fill: #929aa0;
      }
    </style>
  </defs>
  <path class="st0" d="M52.78,8.21l2.28,1.35,6.95,10.47c.36.3,3.45.33,3.83.1l7.26-10.78,2.07-1.14h1.45c2.63.78,4.09,3.24,2.87,5.88l-5.13,7.89c1.77,1.39,3.27,2.78,4.3,4.83,2.11,4.21.98,9.19,1.3,13.74,7.36,1.7,13.07,7.2,14.92,14.54l10.52-2.53,7.01-10.72c3.19-3.98,8.91-.4,6.94,4.04l-8.83,13.16-1.93.98-13.09,3.19-.64,8.69h13.17c1.25,0,2.44,1.1,3.18,2.01,1.89,2.32,6.72,9.38,7.96,11.96,1.72,3.57-.97,6.85-4.82,5.85-.7-.18-1.49-1.03-1.95-1.58-2.44-2.94-4.27-7.05-6.76-10.04l-11.82-.1-1.84,9.82,10.66,7.2c.52.62,1.01,1.38,1.12,2.19.72,5.2-.46,11.99-.03,17.36-1.02,4.13-6.31,4.41-7.78.42l-.16-14.78-6.94-4.78c-2.49,5.58-7.22,10.26-12.96,12.45-6.86,2.62-17.17,2.65-24.01-.06-5.77-2.28-10.23-6.86-12.91-12.39-.99.99-6.63,3.98-6.91,4.92l-.03,14.07c-.79,4.7-7.23,4.44-7.89-.22.36-5.35-.48-11.32,0-16.6.09-1.03.46-1.81,1.15-2.58l10.47-6.95.2-.59-1.86-9.47h-11.32l-.72.3c-2.28,3-4.13,6.82-6.46,9.72-.52.64-1.36,1.58-2.19,1.75-3.66.75-6.3-2.35-4.73-5.77,1.05-2.29,6.5-10.32,8.21-12.33.68-.8,1.91-1.77,3-1.77h13.17l-.64-8.69-13.09-3.19-1.81-.89-8.76-13.01c-2.37-4.53,3.6-8.31,6.76-4.27l7.01,10.72,10.52,2.53c1.86-7.33,7.58-12.82,14.92-14.54.29-3.84-.51-8.07.55-11.79.83-2.89,2.74-4.96,5.05-6.77-1.3-3.57-7.96-8.58-4.54-12.42.65-.73,1.43-.98,2.28-1.35h1.45l.02-.03ZM71.86,40.15v-9.23c0-1.03-2.28-2.53-3.31-2.71-1.65-.28-8.13-.29-9.64.13-.84.24-2.81,1.74-2.81,2.58v9.23h15.76ZM60.04,48.03h-8.61c-4.16,0-8.68,3.75-10.16,7.47-1.61,4.03-.71,11.59-.31,16.07,1.09,12.21,3.58,30.94,19.08,31.84v-55.38ZM68.23,48.03l-.31.31v54.97c.51.41,1.84-.01,2.53-.17,13.33-2.98,15.52-19.99,16.55-31.36.36-4,1.19-11.81.06-15.41-1.3-4.13-6.04-8.34-10.53-8.34,0,0-8.3,0-8.3,0Z"/>
</svg>