<?xml version="1.0" encoding="utf-8"?>
<!-- Svg Vector Icons : http://www.onlinewebfonts.com/icon -->
<!DOCTYPE svg PUBLIC "-//W3C//DTD SVG 1.1//EN" "http://www.w3.org/Graphics/SVG/1.1/DTD/svg11.dtd">
<svg version="1.1" xmlns="http://www.w3.org/2000/svg" xmlns:xlink="http://www.w3.org/1999/xlink" x="0px" y="0px" viewBox="0 0 256 256" enable-background="new 0 0 256 256" xml:space="preserve">
<metadata> Svg Vector Icons : http://www.onlinewebfonts.com/icon </metadata>
<g><g><g><path fill="#FFFFFF" d="M176.8,25.2c-1.3,0.6-3.1,2.1-3.8,3.4c-0.3,0.5-0.6,4-0.8,7.8c-0.2,6-0.4,7.2-1.4,9.2c-1.4,3-4.1,5.7-7.1,7.1c-2.2,1.1-2.8,1.1-14.5,1.4c-11,0.3-12.5,0.4-15.2,1.3c-9.4,3.3-16.2,10-19.4,19.4c-0.8,2.5-1.1,4.4-1.3,11.6l-0.3,8.7l-1.5,1.5l-1.5,1.5l-38.2,0.2c-35.3,0.2-38.3,0.3-40.6,1.1c-7.9,2.6-14.5,8.2-17.9,15c-3.3,6.8-3.3,5.6-3.3,50.2c0,44.7,0,43.4,3.3,50.2c3.8,7.6,11.6,13.7,20,15.4c4.8,1,184.6,1,189.4,0c11-2.3,20.3-11.6,22.6-22.6c1-4.8,1-81.4,0-86.2c-1.8-8.4-7.8-16.2-15.4-20c-6.9-3.4-6.1-3.3-46.5-3.2c-35.5,0.1-35.9,0.1-37.2,1.1c-2.4,1.8-3.2,3.3-3.2,6.2c0,2.9,0.7,4.4,3.2,6.2c1.2,1,1.8,1,37.7,1.2l36.5,0.2l2.3,1.2c3,1.4,5.7,4.2,7.1,7.1l1.2,2.3v40.8v40.8l-1.2,2.3c-1.4,3-4.2,5.7-7.1,7.1l-2.3,1.2H128H35.6l-2.3-1.2c-3-1.4-5.7-4.2-7.1-7.1l-1.2-2.3v-40.8V124l1.2-2.3c1.4-3,4.2-5.7,7.1-7.1l2.3-1.2l39.2-0.2l39.2-0.2l3.5-1.7c4.2-2.1,6.8-4.7,8.8-9c1.5-3.1,1.5-3.1,1.7-12.8c0.3-9,0.4-9.8,1.4-12c1.4-3,4.2-5.7,7.1-7.1c2.2-1.1,2.8-1.2,14.5-1.4c11.6-0.2,12.4-0.3,15.6-1.5c4.7-1.7,8.1-3.7,11.6-7.2c3.5-3.5,5.6-6.8,7.3-11.6c1.1-3.1,1.2-4,1.2-11.3c0-8.6-0.1-9.1-3-11.3C182.2,24.9,178.5,24.4,176.8,25.2z"/><path fill="#FFFFFF" d="M43.9,128.5c-4.5,2-5.7,7.9-2.5,11.6c2.1,2.4,3.6,2.6,13.9,2.4c9.9-0.1,10.3-0.2,12.5-3.3c1.3-1.8,1.3-6.1,0-7.9c-2.3-3.1-2.5-3.2-13-3.3C47.6,127.9,44.9,128,43.9,128.5z"/><path fill="#FFFFFF" d="M88.1,128.5c-4.7,2-5.8,8.2-2.1,11.8c3,3,7.2,3,10.2,0C101.9,134.7,95.5,125.3,88.1,128.5z"/><path fill="#FFFFFF" d="M117.6,128.5c-4.7,2-5.8,8.2-2.1,11.8c3,3,7.2,3,10.2,0C131.4,134.7,125,125.3,117.6,128.5z"/><path fill="#FFFFFF" d="M147.1,128.5c-4.7,2-5.8,8.2-2.1,11.8c3,3,7.2,3,10.2,0C160.9,134.7,154.5,125.3,147.1,128.5z"/><path fill="#FFFFFF" d="M176.6,128.5c-4.7,2-5.8,8.2-2.1,11.8c3,3,7.2,3,10.2,0C190.4,134.7,184,125.3,176.6,128.5z"/><path fill="#FFFFFF" d="M206.1,128.5c-4.7,2-5.8,8.2-2.1,11.8c3,3,7.2,3,10.2,0C219.9,134.7,213.5,125.3,206.1,128.5z"/><path fill="#FFFFFF" d="M43.9,158c-3.1,1.3-4.8,4.9-4.2,8.3c0.4,2.2,2.7,4.7,4.8,5.3c1.1,0.3,7.4,0.5,18.2,0.4c15.8-0.1,16.5-0.2,17.7-1.1c2.4-1.8,3.2-3.3,3.2-6.2c0-2.9-0.7-4.4-3.2-6.2c-1.2-0.9-1.9-1-18.2-1.1C48.8,157.4,45,157.5,43.9,158z"/><path fill="#FFFFFF" d="M102.9,158c-4.7,2-5.8,8.2-2.1,11.8c3,3,7.2,3,10.2,0C116.7,164.2,110.3,154.8,102.9,158z"/><path fill="#FFFFFF" d="M132.3,158c-4.7,2-5.8,8.2-2.1,11.8c3,3,7.2,3,10.2,0C146.2,164.2,139.8,154.8,132.3,158z"/><path fill="#FFFFFF" d="M161.8,158c-4.7,2-5.8,8.2-2.1,11.8c3,3,7.2,3,10.2,0C175.7,164.2,169.3,154.8,161.8,158z"/><path fill="#FFFFFF" d="M191.3,158c-4.5,2-5.7,7.9-2.5,11.6c2.1,2.4,3.6,2.6,13.9,2.4c9.9-0.1,10.3-0.2,12.5-3.3c1.3-1.8,1.3-6.1,0-7.9c-2.3-3.1-2.5-3.2-13-3.3C195,157.4,192.4,157.5,191.3,158z"/><path fill="#FFFFFF" d="M58.6,187.5c-4.7,2-5.8,8.2-2.1,11.8c3,3,7.2,3,10.2,0C72.4,193.7,66,184.3,58.6,187.5z"/><path fill="#FFFFFF" d="M88.1,187.5c-3.1,1.3-4.8,4.9-4.2,8.3c0.4,2.2,2.7,4.7,4.8,5.3c1.2,0.4,11.8,0.5,32.9,0.4c30.6-0.1,31.2-0.1,32.4-1.1c2.4-1.8,3.2-3.3,3.2-6.2c0-2.9-0.7-4.4-3.2-6.2c-1.2-1-1.8-1-32.9-1.1C95.5,186.9,89.2,187,88.1,187.5z"/><path fill="#FFFFFF" d="M176.6,187.5c-4.7,2-5.8,8.2-2.1,11.8c3,3,7.2,3,10.2,0C190.4,193.7,184,184.3,176.6,187.5z"/><path fill="#FFFFFF" d="M206.1,187.5c-4.7,2-5.8,8.2-2.1,11.8c3,3,7.2,3,10.2,0C219.9,193.7,213.5,184.3,206.1,187.5z"/></g></g></g>
</svg>