<?xml version="1.0" encoding="UTF-8"?>
<svg id="Layer_1" xmlns="http://www.w3.org/2000/svg" version="1.1" viewBox="0 0 16 16">
  <!-- Generator: Adobe Illustrator 29.8.3, SVG Export Plug-In . SVG Version: 2.1.1 Build 3)  -->
  <defs>
    <style>
      .st0 {
        font-family: NunitoSans-Black, 'Nunito Sans';
        font-size: 12.79px;
        font-weight: 800;
        letter-spacing: .02em;
      }

      .st0, .st1 {
        isolation: isolate;
      }

      .st0, .st2 {
        fill: #307dc1;
      }
    </style>
  </defs>
  <g class="st1">
    <text class="st0" transform="translate(.38 12.51) scale(.85 1)"><tspan x="0" y="0">P</tspan></text>
  </g>
  <path class="st2" d="M13.86,6.93c.43.24.76.58,1,1.01.24.43.36.93.36,1.5,0,.61-.15,1.15-.44,1.62-.29.46-.71.82-1.25,1.07-.54.25-1.17.37-1.89.37-.58,0-1.16-.09-1.72-.26s-1.02-.4-1.36-.69l.72-1.64c.79.53,1.59.8,2.39.8.47,0,.82-.09,1.05-.28s.34-.49.34-.89-.12-.68-.36-.89-.58-.31-1-.31c-.24,0-.49.04-.76.12-.27.08-.52.19-.75.32h-1.28l.46-5.28h5.41v1.76h-3.44l-.17,1.55c.33-.15.74-.23,1.24-.23.55,0,1.04.12,1.47.36h0Z"/>
</svg>