<?xml version="1.0" encoding="UTF-8"?>
<svg id="Layer_1" xmlns="http://www.w3.org/2000/svg" version="1.1" viewBox="0 0 24 24">
  <!-- Generator: Adobe Illustrator 29.8.3, SVG Export Plug-In . SVG Version: 2.1.1 Build 3)  -->
  <defs>
    <style>
      .st0 {
        fill: red;
      }

      .st1 {
        fill: #281fea;
      }
    </style>
  </defs>
  <path class="st0" d="M16,15h8l-4,5-4-5ZM8,9H0l4-5,4,5Z"/>
  <path class="st0" d="M21,6c0-1.65-1.35-3-3-3H7.16l1.6,2h9.24c.55,0,1,.45,1,1v10h2V6ZM3,18c0,1.65,1.35,3,3,3h10.84l-1.6-2H6c-.55,0-1-.45-1-1v-10h-2v10Z"/>
  <rect class="st1" x="8.99" y="7.38" width="2.43" height="9.89"/>
  <rect class="st1" x="12.58" y="7.38" width="2.43" height="9.89"/>
</svg>