<?xml version="1.0" encoding="UTF-8"?>
<svg id="Layer_1" xmlns="http://www.w3.org/2000/svg" version="1.1" viewBox="0 0 24 24">
  <!-- Generator: Adobe Illustrator 29.8.3, SVG Export Plug-In . SVG Version: 2.1.1 Build 3)  -->
  <defs>
    <style>
      .st0 {
        fill: #307dc1;
      }
    </style>
  </defs>
  <path class="st0" d="M23.14,11.69l-6.31-7.76c-.09-.11-.23-.18-.38-.18h-4.88c-.19,0-.36.11-.44.28s-.06.37.06.51l6.06,7.46-6.06,7.46c-.12.14-.14.34-.06.51s.25.28.44.28h4.88c.15,0,.28-.07.38-.18l6.31-7.76c.14-.18.14-.43,0-.61h0Z"/>
  <path class="st0" d="M12.8,11.69L6.49,3.93c-.09-.11-.23-.18-.38-.18H1.24c-.19,0-.36.11-.44.28-.08.17-.06.37.06.51l6.06,7.46L.86,19.46c-.12.14-.14.34-.06.51s.25.28.44.28h4.88c.15,0,.28-.07.38-.18l6.31-7.76c.14-.18.14-.43,0-.61h0Z"/>
</svg>