<?xml version="1.0" encoding="UTF-8"?>
<svg id="Layer_1" xmlns="http://www.w3.org/2000/svg" version="1.1" viewBox="0 0 24 24">
  <!-- Generator: Adobe Illustrator 29.8.3, SVG Export Plug-In . SVG Version: 2.1.1 Build 3)  -->
  <defs>
    <style>
      .st0 {
        fill: #307dc1;
      }
    </style>
  </defs>
  <path class="st0" d="M20.25,4.44l-.03-.16c-.23-.6-.64-1.02-1.2-1.21-.71-.24-3.12-.15-3.46-.12-.82.05-1.77.62-1.91,1.56v4.52S6.51,3.36,6.51,3.36l-.09-.06c-.58-.29-1.27-.27-1.83.07-.57.35-.92.95-.93,1.62v14.07c.04.67.44,1.29,1.04,1.61.58.31,1.26.29,1.87-.08l7.07-5.63v4.44c0,.7.86,1.39,1.34,1.53.37.11,1.18.14,1.93.14.63,0,1.22-.02,1.45-.04,1.19-.09,1.88-.8,1.96-2.05-.02-1.88-.01-3.76,0-5.65.01-2.92.03-5.93-.07-8.9Z"/>
</svg>